<svg width="96" height="39" viewBox="0 0 96 39" fill="none" xmlns="http://www.w3.org/2000/svg">
<path fill-rule="evenodd" clip-rule="evenodd" d="M96 19.5C96 15.3164 96 13.2246 95.5855 11.4983C94.2688 6.01359 89.9864 1.73122 84.5017 0.414451C82.7754 0 80.6836 0 76.5 0H24.5C20.3164 0 18.2246 0 16.4983 0.414451C11.0136 1.73122 6.73122 6.01359 5.41445 11.4983C5 13.2246 5 15.3164 5 19.5C5 23.6836 5 25.7754 5.41445 27.5017C6.73122 32.9864 11.0136 37.2688 16.4983 38.5855C18.2246 39 20.3164 39 24.5 39H76.5C80.6836 39 82.7754 39 84.5017 38.5855C89.9864 37.2688 94.2688 32.9864 95.5855 27.5017C96 25.7754 96 23.6836 96 19.5Z" fill="#434D64"/>
<path d="M20 25C20 32.732 13.732 39 6.00005 39H4.57764e-05V38.668C2.49608 36.5718 4.24734 33.6212 4.80962 30.252C5.00056 29.1077 5.00005 27.7383 5.00005 25H20Z" fill="#434D64"/>
<circle cx="72" cy="23" r="6" transform="rotate(180 72 23)" fill="#E8E9EC"/>
<circle cx="50" cy="14" r="6" transform="rotate(180 50 14)" fill="#B6BAC3"/>
<circle cx="28" cy="23" r="6" transform="rotate(180 28 23)" fill="#E8E9EC"/>
</svg>
